<?xml version="1.0" encoding="UTF-8" standalone="no"?>
<svg
   height="32px"
   version="1.1"
   viewBox="0 0 32 32"
   width="32px"
   id="svg1"
   sodipodi:docname="certificate.svg"
   inkscape:version="1.3.2 (091e20e, 2023-11-25, custom)"
   xmlns:inkscape="http://www.inkscape.org/namespaces/inkscape"
   xmlns:sodipodi="http://sodipodi.sourceforge.net/DTD/sodipodi-0.dtd"
   xmlns="http://www.w3.org/2000/svg"
   xmlns:svg="http://www.w3.org/2000/svg">
  <sodipodi:namedview
     id="namedview1"
     pagecolor="#505050"
     bordercolor="#ffffff"
     borderopacity="1"
     inkscape:showpageshadow="0"
     inkscape:pageopacity="0"
     inkscape:pagecheckerboard="1"
     inkscape:deskcolor="#505050"
     inkscape:zoom="23.621786"
     inkscape:cx="18.161201"
     inkscape:cy="15.769341"
     inkscape:window-width="2160"
     inkscape:window-height="1346"
     inkscape:window-x="-11"
     inkscape:window-y="-11"
     inkscape:window-maximized="1"
     inkscape:current-layer="svg1" />
  <title
     id="title1" />
  <desc
     id="desc1" />
  <defs
     id="defs1" />
  <g
     fill="none"
     fill-rule="evenodd"
     id="Page-1"
     stroke="none"
     stroke-width="1">
    <g
       fill="#929292"
       id="icon-138-certificate">
      <path
         d="m 13.002176,20.08818 v 3.050509 h 12.995053 c 1.107302,0 2.004947,-0.890059 2.004947,-2.000107 V 8.1387946 c 0,-1.1046282 -0.897026,-2.0001062 -2.004947,-2.0001062 H 6.0071229 c -1.1073014,0 -2.0049466,0.8900584 -2.0049466,2.0001062 V 21.138582 c 0,1.104629 0.8970263,2.000107 2.0049466,2.000107 H 8.0021763 V 20.08818 c -0.6185935,-0.631268 -1,-1.495839 -1,-2.449491 0,-1.932997 1.5670033,-3.5 3.4999997,-3.5 1.932997,0 3.5,1.567003 3.5,3.5 0,0.953652 -0.381406,1.818223 -1,2.449491 z m -3.9999997,0.713693 v 4.936791 l 1.4999997,-1.499969 1.5,1.499969 v -4.936791 c -0.454628,0.21597 -0.963201,0.336816 -1.5,0.336816 -0.5367987,0 -1.0453717,-0.120846 -1.4999997,-0.336816 z m -2,-9.663184 v 1 H 25.002176 v -1 z m 8.9999997,3 v 1 h 9 v -1 z m 3,3 v 1 h 6 v -1 z m -8.5,3 c 1.380712,0 2.5,-1.119288 2.5,-2.5 0,-1.380712 -1.119288,-2.5 -2.5,-2.5 -1.3807116,0 -2.4999997,1.119288 -2.4999997,2.5 0,1.380712 1.1192881,2.5 2.4999997,2.5 z"
         id="certificate"
         style="fill:#ffffff;fill-opacity:1" />
    </g>
  </g>
</svg>
