<?xml version="1.0" encoding="UTF-8" standalone="no" ?>
<!DOCTYPE svg PUBLIC "-//W3C//DTD SVG 1.1//EN" "http://www.w3.org/Graphics/SVG/1.1/DTD/svg11.dtd">
<svg xmlns="http://www.w3.org/2000/svg" xmlns:xlink="http://www.w3.org/1999/xlink" version="1.1" width="1080" height="1080" viewBox="0 0 1080 1080" xml:space="preserve">
<desc>Created with Fabric.js 5.2.4</desc>
<defs>
</defs>
<g transform="matrix(1 0 0 1 540 540)" id="a1ee0235-9344-4e82-8bd3-a0309f89347c"  >
<rect style="stroke: none; stroke-width: 1; stroke-dasharray: none; stroke-linecap: butt; stroke-dashoffset: 0; stroke-linejoin: miter; stroke-miterlimit: 4; fill: rgb(255,255,255); fill-rule: nonzero; opacity: 1; visibility: hidden;" vector-effect="non-scaling-stroke"  x="-540" y="-540" rx="0" ry="0" width="1080" height="1080" />
</g>
<g transform="matrix(1 0 0 1 540 540)" id="817bd357-7c93-40f0-998c-c5d6ab1141cb"  >
</g>
<g transform="matrix(1 0 0 1 540 540)" id="605964cb-bae1-45db-87c3-0d151d102645"  >
<path style="stroke: rgb(0,0,0); stroke-width: 0; stroke-dasharray: none; stroke-linecap: butt; stroke-dashoffset: 0; stroke-linejoin: miter; stroke-miterlimit: 4; fill: rgb(255,255,255); fill-rule: nonzero; opacity: 1;" vector-effect="non-scaling-stroke"  transform=" translate(-320, -256)" d="M 416 31.94 C 416 21.75 408.1 0 384.1 0 C 370.12 0 357.23 9.072 353.21000000000004 23.18 L 225.21000000000004 471.18 C 224.36960000000005 474.115 223.96900000000002 477.072 223.96900000000002 479.981 C 223.1 490.3 232 512 256 512 C 269.92 512 282.73 502.843 286.75 488.78 L 414.75 40.77999999999997 C 415.6 37.81 416 34.85 416 31.94 z M 176 143.1 C 176 124.82 161.05 111.1 144 111.1 C 135.812 111.1 127.62 114.225 121.38 120.476 L 9.379999999999995 232.476 C 3.125 239.6 0 247.8 0 255.1 C 0 262.4 3.125 272.4 9.375 278.6 L 121.375 390.6 C 127.6 396.9 135.8 399.1 144 399.1 C 161.05 399.1 176 385.37 176 367.1 C 176 358.91200000000003 172.875 350.72 166.625 344.47 L 77.25 255.1 L 166.63 165.72 C 172.9 160.3 176 152.2 176 143.1 z M 640 255.1 C 640 246.912 636.875 238.72 630.625 232.47 L 518.625 120.47 C 512.4 115.1 504.2 111.1 496 111.1 C 478.95 111.1 464 124.83 464 143.1 C 464 151.28799999999998 467.125 159.48 473.375 165.73 L 562.755 255.10999999999999 L 473.375 344.49 C 467.1 351.6 464 359.8 464 367.1 C 464 385.38 478.95 399.1 496 399.1 C 504.188 399.1 512.38 395.975 518.62 389.72400000000005 L 630.62 277.72400000000005 C 636.9 272.4 640 264.2 640 255.1 z" stroke-linecap="round" />
</g>
</svg>