<?xml version="1.0" encoding="UTF-8" standalone="no"?>
<svg
   width="54.992001"
   height="31.068001"
   viewBox="0 0 54.992004 31.068"
   version="1.1"
   id="svg9"
   sodipodi:docname="satr.svg"
   inkscape:version="1.3.2 (091e20e, 2023-11-25, custom)"
   xmlns:inkscape="http://www.inkscape.org/namespaces/inkscape"
   xmlns:sodipodi="http://sodipodi.sourceforge.net/DTD/sodipodi-0.dtd"
   xmlns="http://www.w3.org/2000/svg"
   xmlns:svg="http://www.w3.org/2000/svg">
  <sodipodi:namedview
     id="namedview9"
     pagecolor="#505050"
     bordercolor="#ffffff"
     borderopacity="1"
     inkscape:showpageshadow="0"
     inkscape:pageopacity="0"
     inkscape:pagecheckerboard="1"
     inkscape:deskcolor="#505050"
     showgrid="false"
     inkscape:zoom="16.052395"
     inkscape:cx="21.554417"
     inkscape:cy="17.193696"
     inkscape:window-width="2160"
     inkscape:window-height="1346"
     inkscape:window-x="-11"
     inkscape:window-y="-11"
     inkscape:window-maximized="1"
     inkscape:current-layer="svg9" />
  <defs
     id="defs1">
    <style
       id="style1">.a{fill:#007ee5;}.b{fill:#00ebeb;}.c{fill:#002a4c;}</style>
  </defs>
  <g
     id="g1"
     transform="translate(0.09468671,1.5956483)">
    <path
       class="a"
       d="M 44.345,11.484 H 44.297 A 5.647,5.647 0 0 1 38.65,5.837 v 0 A 5.647,5.647 0 0 1 44.297,0.19 h 0.048 a 5.647,5.647 0 0 1 5.647,5.647 v 0 a 5.647,5.647 0 0 1 -5.647,5.647 z"
       id="path1" />
    <path
       class="b"
       d="M 10.526,27.993 H 10.48 A 5.647,5.647 0 0 1 4.833,22.346 v 0 a 5.647,5.647 0 0 1 5.647,-5.647 h 0.048 a 5.647,5.647 0 0 1 5.647,5.647 v 0 a 5.647,5.647 0 0 1 -5.649,5.647 z"
       id="path2" />
    <rect
       class="b"
       width="28.75"
       height="11.343"
       rx="5.671"
       id="rect2"
       x="4.8259964"
       y="0.034000002" />
    <path
       class="a"
       d="m 49.992,22.348 v 0 a 5.673,5.673 0 0 1 -5.673,5.671 h -17.4 a 5.672,5.672 0 0 1 -5.673,-5.671 v 0 a 5.672,5.672 0 0 1 5.673,-5.671 h 17.4 a 5.672,5.672 0 0 1 5.673,5.671 z"
       id="path3" />
  </g>
</svg>
