<?xml version="1.0" encoding="UTF-8" standalone="no"?>
<svg
   version="1.1"
   width="512px"
   height="512px"
   style="shape-rendering:geometricPrecision; text-rendering:geometricPrecision; image-rendering:optimizeQuality; fill-rule:evenodd; clip-rule:evenodd"
   id="svg28"
   sodipodi:docname="sql.svg"
   inkscape:version="1.3.2 (091e20e, 2023-11-25, custom)"
   xmlns:inkscape="http://www.inkscape.org/namespaces/inkscape"
   xmlns:sodipodi="http://sodipodi.sourceforge.net/DTD/sodipodi-0.dtd"
   xmlns="http://www.w3.org/2000/svg"
   xmlns:svg="http://www.w3.org/2000/svg">
  <defs
     id="defs28" />
  <sodipodi:namedview
     id="namedview28"
     pagecolor="#505050"
     bordercolor="#ffffff"
     borderopacity="1"
     inkscape:showpageshadow="0"
     inkscape:pageopacity="0"
     inkscape:pagecheckerboard="1"
     inkscape:deskcolor="#505050"
     showgrid="false"
     inkscape:zoom="1.4763616"
     inkscape:cx="197.78352"
     inkscape:cy="222.84513"
     inkscape:window-width="2160"
     inkscape:window-height="1346"
     inkscape:window-x="-11"
     inkscape:window-y="-11"
     inkscape:window-maximized="1"
     inkscape:current-layer="svg28" />
  <g
     id="g29"
     transform="matrix(0.64078578,0,0,0.64078578,91.636713,91.975388)">
    <g
       id="g1">
      <path
         style="opacity:0.997"
         fill="#c4d2dc"
         d="m 215.5,-0.5 c 10.667,0 21.333,0 32,0 37.855,0.49786028 75.522,4.33119 113,11.5 13.533,2.8435 26.199,7.8435 38,15 5.357,5.5918 5.024,10.9251 -1,16 -8.818,5.1629 -18.151,9.1629 -28,12 -33.054,7.6007 -66.388,12.1007 -100,13.5 -49.887,1.8983 -99.22,-2.2683 -148,-12.5 -11.86,-2.7666 -22.8597,-7.4332 -33,-14 -1.4771,-1.8121 -2.8104,-3.6455 -4,-5.5 -0.2616,-4.9757 1.7384,-8.809 6,-11.5 7.2195,-4.2977 14.886,-7.6311 23,-10 33.674,-8.12351 67.674,-12.95684 102,-14.5 z"
         id="path1" />
    </g>
    <g
       id="g2">
      <path
         style="opacity:1"
         fill="#acc2d1"
         d="m 247.5,-0.5 c 16,0 32,0 48,0 34.326,1.54307 68.326,6.37641 102,14.5 8.114,2.3689 15.78,5.7023 23,10 4.563,2.9589 6.563,7.1256 6,12.5 -6.399,7.3672 -14.399,12.3672 -24,15 -43.569,11.3229 -87.903,16.6562 -133,16 33.612,-1.3993 66.946,-5.8993 100,-13.5 9.849,-2.8371 19.182,-6.8371 28,-12 6.024,-5.0749 6.357,-10.4082 1,-16 -11.801,-7.1565 -24.467,-12.1565 -38,-15 -37.478,-7.16881 -75.145,-11.00213972 -113,-11.5 z"
         id="path2" />
    </g>
    <g
       id="g3">
      <path
         style="opacity:0.999"
         fill="#9facba"
         d="m 84.5,35.5 c 1.1896,1.8545 2.5229,3.6879 4,5.5 10.1403,6.5668 21.14,11.2334 33,14 48.78,10.2317 98.113,14.3983 148,12.5 45.097,0.6562 89.431,-4.6771 133,-16 0.167,17.6698 0,35.3365 -0.5,53 -3.571,5.376 -8.405,9.209 -14.5,11.5 -12.778,4.562 -25.778,8.228 -39,11 -18.938,2.896 -37.938,5.229 -57,7 3.317,0.498 6.65,0.665 10,0.5 -48.299,2.771 -96.633,1.271 -145,-4.5 -17.13,-2.991 -34.13,-6.491 -51,-10.5 -5.399,-2.535 -10.7321,-5.368 -16,-8.5 -1.8783,-1.543 -3.3783,-3.376 -4.5,-5.5 -0.5,-23.331 -0.6666,-46.6643 -0.5,-70 z"
         id="path3" />
    </g>
    <g
       id="g4">
      <path
         style="opacity:1"
         fill="#8e9dad"
         d="m 426.5,36.5 c 0.167,23.0024 0,46.0024 -0.5,69 -5.242,6.712 -12.076,11.045 -20.5,13 -5.159,1.497 -10.159,3.164 -15,5 -29.357,6.045 -59.024,9.711 -89,11 -3.35,0.165 -6.683,-0.002 -10,-0.5 19.062,-1.771 38.062,-4.104 57,-7 13.222,-2.772 26.222,-6.438 39,-11 6.095,-2.291 10.929,-6.124 14.5,-11.5 0.5,-17.6635 0.667,-35.3302 0.5,-53 9.601,-2.6328 17.601,-7.6328 24,-15 z"
         id="path4" />
    </g>
    <g
       id="g5">
      <path
         style="opacity:0.999"
         fill="#c4d2dc"
         d="m 105.5,119.5 c 16.87,4.009 33.87,7.509 51,10.5 48.367,5.771 96.701,7.271 145,4.5 29.976,-1.289 59.643,-4.955 89,-11 5.893,2.392 9.893,6.559 12,12.5 -2.686,7.015 -7.686,11.682 -15,14 -26.952,8.99 -54.618,14.657 -83,17 -26.288,2.153 -52.621,2.986 -79,2.5 -31.225,-0.975 -62.225,-4.142 -93,-9.5 -14.82,-2.828 -28.82,-7.828 -42,-15 -2.2341,-2.063 -4.2341,-4.229 -6,-6.5 -0.6596,-4.847 1.0071,-8.681 5,-11.5 4.9627,-3.315 10.2961,-5.815 16,-7.5 z"
         id="path5" />
    </g>
    <g
       id="g6">
      <path
         style="opacity:1"
         fill="#acc1d0"
         d="m 405.5,118.5 c 5.399,2.535 10.732,5.368 16,8.5 3.993,2.819 5.66,6.653 5,11.5 -6.305,7.497 -14.305,12.497 -24,15 -26.732,7.928 -54.065,12.761 -82,14.5 -31.805,2.33 -63.472,2.83 -95,1.5 26.379,0.486 52.712,-0.347 79,-2.5 28.382,-2.343 56.048,-8.01 83,-17 7.314,-2.318 12.314,-6.985 15,-14 -2.107,-5.941 -6.107,-10.108 -12,-12.5 4.841,-1.836 9.841,-3.503 15,-5 z"
         id="path6" />
    </g>
    <g
       id="g7">
      <path
         style="opacity:0.998"
         fill="#9facba"
         d="m 84.5,138.5 c 1.7659,2.271 3.7659,4.437 6,6.5 13.18,7.172 27.18,12.172 42,15 30.775,5.358 61.775,8.525 93,9.5 31.528,1.33 63.195,0.83 95,-1.5 27.935,-1.739 55.268,-6.572 82,-14.5 0.167,17.337 0,34.67 -0.5,52 -0.516,2.534 -1.683,4.7 -3.5,6.5 -12.426,7.204 -25.759,12.204 -40,15 -25.115,4.889 -50.449,8.222 -76,10 2.646,0.497 5.313,0.664 8,0.5 -47.388,2.404 -94.721,0.237 -142,-6.5 -14.828,-2.541 -29.495,-5.708 -44,-9.5 -4.7324,-2.202 -9.399,-4.702 -14,-7.5 -2.2089,-1.873 -4.0422,-4.04 -5.5,-6.5 -0.5,-22.998 -0.6666,-45.998 -0.5,-69 z"
         id="path7" />
    </g>
    <g
       id="g8">
      <path
         style="opacity:1"
         fill="#8e9dad"
         d="m 426.5,138.5 c 0.167,23.002 0,46.002 -0.5,69 -1.458,2.46 -3.291,4.627 -5.5,6.5 -4.601,2.798 -9.268,5.298 -14,7.5 -5.503,0.709 -10.836,2.042 -16,4 -32.935,7.141 -66.269,11.141 -100,12 -2.687,0.164 -5.354,-0.003 -8,-0.5 25.551,-1.778 50.885,-5.111 76,-10 14.241,-2.796 27.574,-7.796 40,-15 1.817,-1.8 2.984,-3.966 3.5,-6.5 0.5,-17.33 0.667,-34.663 0.5,-52 9.695,-2.503 17.695,-7.503 24,-15 z"
         id="path8" />
    </g>
    <g
       id="g9">
      <path
         style="opacity:0.999"
         fill="#c4d2dc"
         d="m 104.5,221.5 c 14.505,3.792 29.172,6.959 44,9.5 47.279,6.737 94.612,8.904 142,6.5 33.731,-0.859 67.065,-4.859 100,-12 4.683,2.273 8.516,5.606 11.5,10 0.523,6.117 -1.977,10.617 -7.5,13.5 -15.991,7.219 -32.657,12.219 -50,15 -26.345,4.057 -52.678,6.891 -79,8.5 -15.667,0 -31.333,0 -47,0 -32.149,-2.019 -64.149,-6.186 -96,-12.5 -9.767,-2.144 -19.1,-5.478 -28,-10 -3.8607,-2.696 -7.194,-5.863 -10,-9.5 -0.3306,-4.005 1.0027,-7.338 4,-10 5.104,-3.548 10.4374,-6.548 16,-9 z"
         id="path9" />
    </g>
    <g
       id="g10">
      <path
         style="opacity:1"
         fill="#abc1d1"
         d="m 406.5,221.5 c 5.563,2.452 10.896,5.452 16,9 2.997,2.662 4.331,5.995 4,10 -1.283,2.368 -2.95,4.535 -5,6.5 -6.147,3.74 -12.48,6.907 -19,9.5 -35.583,8.945 -71.583,14.279 -108,16 -9.667,0 -19.333,0 -29,0 26.322,-1.609 52.655,-4.443 79,-8.5 17.343,-2.781 34.009,-7.781 50,-15 5.523,-2.883 8.023,-7.383 7.5,-13.5 -2.984,-4.394 -6.817,-7.727 -11.5,-10 5.164,-1.958 10.497,-3.291 16,-4 z"
         id="path10" />
    </g>
    <g
       id="g11">
      <path
         style="opacity:0.988"
         fill="#9eacb9"
         d="m 84.5,240.5 c 2.806,3.637 6.1393,6.804 10,9.5 8.9,4.522 18.233,7.856 28,10 31.851,6.314 63.851,10.481 96,12.5 -23.669,-0.167 -47.336,0 -71,0.5 -4.773,1.774 -8.273,4.94 -10.5,9.5 -0.169,16.505 -0.669,32.838 -1.5,49 -16.812,-2.436 -32.479,-7.936 -47,-16.5 -1.2875,-1.41 -2.4542,-2.91 -3.5,-4.5 -0.5,-23.331 -0.6666,-46.664 -0.5,-70 z"
         id="path11" />
    </g>
    <g
       id="g12">
      <path
         style="opacity:1"
         fill="#8e9dad"
         d="m 426.5,240.5 c 0.167,23.336 0,46.669 -0.5,70 -3.593,4.584 -8.093,8.084 -13.5,10.5 -12.033,4.591 -24.367,8.091 -37,10.5 0,-2.333 0,-4.667 0,-7 9.761,-1.968 18.261,-6.302 25.5,-13 1.461,-18.265 1.961,-36.598 1.5,-55 6.52,-2.593 12.853,-5.76 19,-9.5 2.05,-1.965 3.717,-4.132 5,-6.5 z"
         id="path12" />
    </g>
    <g
       id="g13">
      <path
         style="opacity:1"
         fill="#9eacba"
         d="m 402.5,256.5 c 0.461,18.402 -0.039,36.735 -1.5,55 -7.239,6.698 -15.739,11.032 -25.5,13 0.167,-13.004 0,-26.004 -0.5,-39 -1.5,-6.833 -5.667,-11 -12.5,-12.5 -7.993,-0.5 -15.993,-0.666 -24,-0.5 -14.667,0 -29.333,0 -44,0 36.417,-1.721 72.417,-7.055 108,-16 z"
         id="path13" />
    </g>
    <g
       id="g14">
      <path
         style="opacity:1"
         fill="#47cc8d"
         d="m 338.5,272.5 c 8.007,-0.166 16.007,0 24,0.5 6.833,1.5 11,5.667 12.5,12.5 0.5,12.996 0.667,25.996 0.5,39 0,2.333 0,4.667 0,7 0.458,17.403 -0.042,34.736 -1.5,52 -2.315,4.317 -5.815,7.15 -10.5,8.5 -8.327,0.5 -16.66,0.666 -25,0.5 5.954,-2.457 10.121,-6.79 12.5,-13 0.667,-31.667 0.667,-63.333 0,-95 -2.769,-5.605 -6.936,-9.605 -12.5,-12 z"
         id="path14" />
    </g>
    <g
       id="g15">
      <path
         style="opacity:0.994"
         fill="#6ed5a1"
         d="m 218.5,272.5 c 15.667,0 31.333,0 47,0 9.667,0 19.333,0 29,0 14.667,0 29.333,0 44,0 5.564,2.395 9.731,6.395 12.5,12 0.667,31.667 0.667,63.333 0,95 -2.379,6.21 -6.546,10.543 -12.5,13 -21.667,0 -43.333,0 -65,0 -12,0 -24,0 -36,0 -31.063,0.477 -62.063,-0.023 -93,-1.5 -4.317,-2.315 -7.15,-5.815 -8.5,-10.5 -0.5,-16.33 -0.667,-32.663 -0.5,-49 0.831,-16.162 1.331,-32.495 1.5,-49 2.227,-4.56 5.727,-7.726 10.5,-9.5 23.664,-0.5 47.331,-0.667 71,-0.5 z"
         id="path15" />
    </g>
    <g
       id="g16">
      <path
         style="opacity:1"
         fill="#f2f4f3"
         d="m 183.5,299.5 c 11.388,-1.7 21.222,1.3 29.5,9 1.167,8.167 -2.333,11.667 -10.5,10.5 -4.296,-3.982 -9.296,-5.315 -15,-4 -2.846,0.879 -3.513,2.546 -2,5 7.116,2.725 14.116,5.725 21,9 12.129,11.324 11.796,22.324 -1,33 -14.396,6.599 -26.896,4.099 -37.5,-7.5 -2.796,-6.407 -0.796,-10.407 6,-12 4.052,1.704 7.885,3.871 11.5,6.5 5.22,2.548 9.72,1.715 13.5,-2.5 0.63,-2.403 -0.203,-4.237 -2.5,-5.5 -7.198,-2.619 -14.198,-5.619 -21,-9 -10.108,-14.005 -7.441,-24.839 8,-32.5 z"
         id="path16" />
    </g>
    <g
       id="g17">
      <path
         style="opacity:1"
         fill="#f2f4f3"
         d="m 250.5,299.5 c 24.189,-2.458 38.189,8.209 42,32 -0.441,6.326 -2.108,12.326 -5,18 5.721,4.156 6.387,8.989 2,14.5 -2.53,1.422 -5.197,1.755 -8,1 -1.517,-1.685 -3.184,-3.185 -5,-4.5 -21.304,9.954 -37.47,4.621 -48.5,-16 -5.802,-21.73 1.698,-36.73 22.5,-45 z"
         id="path17" />
    </g>
    <g
       id="g18">
      <path
         style="opacity:1"
         fill="#f4f4f4"
         d="m 315.5,299.5 c 4.409,-0.882 7.909,0.452 10.5,4 0.5,15.663 0.667,31.33 0.5,47 4.679,-0.166 9.345,10e-4 14,0.5 4.936,3.958 5.269,8.291 1,13 -8.564,1.607 -17.23,1.94 -26,1 -1.167,-1.167 -2.333,-2.333 -3.5,-3.5 -0.667,-19.333 -0.667,-38.667 0,-58 0.69,-1.85 1.856,-3.184 3.5,-4 z"
         id="path18" />
    </g>
    <g
       id="g19">
      <path
         style="opacity:1"
         fill="#70d5a2"
         d="m 253.5,314.5 c 10.581,-1.628 18.081,2.372 22.5,12 0.825,3.711 0.659,7.378 -0.5,11 -5.319,-5.631 -10.152,-5.298 -14.5,1 -0.835,4.003 0.331,7.336 3.5,10 -10.659,3.256 -18.159,-0.411 -22.5,-11 -2.01,-10.647 1.823,-18.314 11.5,-23 z"
         id="path19" />
    </g>
    <g
       id="g20">
      <path
         style="opacity:1"
         fill="#6aaaef"
         d="m 237.5,392.5 c 12,0 24,0 36,0 0,22.333 0,44.667 0,67 -12,1.333 -24,1.333 -36,0 0,-22.333 0,-44.667 0,-67 z"
         id="path20" />
    </g>
    <g
       id="g21">
      <path
         style="opacity:0.993"
         fill="#9eabb9"
         d="m 237.5,459.5 c 12,1.333 24,1.333 36,0 0.333,0 0.667,0 1,0 3.816,1.01 6.649,3.343 8.5,7 0.667,12.667 0.667,25.333 0,38 -0.938,3.098 -2.772,5.431 -5.5,7 -23,0 -46,0 -69,0 -3.126,-1.66 -4.793,-4.326 -5,-8 1.333,-11.667 1.333,-23.333 0,-35 0.33,-4.496 2.663,-7.329 7,-8.5 8.994,-0.5 17.994,-0.666 27,-0.5 z"
         id="path21" />
    </g>
    <g
       id="g22">
      <path
         style="opacity:1"
         fill="#e0e0e0"
         d="m 44.5,468.5 c 7.956,11.639 7.956,23.305 0,35 -3.3456,3.671 -7.3456,6.338 -12,8 -5,0 -10,0 -15,0 -1,-0.667 -2,-1.333 -3,-2 2.9164,-3.097 5.7497,-6.431 8.5,-10 7.2173,-15.093 4.0506,-27.427 -9.5,-37 11.7111,-4.924 22.0445,-2.924 31,6 z"
         id="path22" />
    </g>
    <g
       id="g23">
      <path
         style="opacity:1"
         fill="#8e9dad"
         d="m 274.5,459.5 c 8.673,-0.166 17.34,0 26,0.5 4.337,1.171 6.67,4.004 7,8.5 -1.333,11.667 -1.333,23.333 0,35 -0.207,3.674 -1.874,6.34 -5,8 -8.333,0 -16.667,0 -25,0 2.728,-1.569 4.562,-3.902 5.5,-7 0.667,-12.667 0.667,-25.333 0,-38 -1.851,-3.657 -4.684,-5.99 -8.5,-7 z"
         id="path23" />
    </g>
    <g
       id="g24">
      <path
         style="opacity:1"
         fill="#e0e0e0"
         d="m 511.5,478.5 c 0,5 0,10 0,15 -3.667,8.333 -9.667,14.333 -18,18 -5,0 -10,0 -15,0 -1.761,-0.813 -3.428,-1.813 -5,-3 9.291,-4.488 13.958,-11.988 14,-22.5 -0.325,-10.133 -4.658,-17.966 -13,-23.5 17.251,-5.871 29.585,-0.538 37,16 z"
         id="path24" />
    </g>
    <g
       id="g25">
      <path
         style="opacity:0.978"
         fill="#f4f4f4"
         d="m 13.5,462.5 c 13.5506,9.573 16.7173,21.907 9.5,37 -2.7503,3.569 -5.5836,6.903 -8.5,10 -7.0917,-3.423 -12.0917,-8.757 -15,-16 0,-5 0,-10 0,-15 2.3396,-7.331 7.00627,-12.664 14,-16 z"
         id="path25" />
    </g>
    <g
       id="g26">
      <path
         style="opacity:0.994"
         fill="#f4f4f4"
         d="m 474.5,462.5 c 8.342,5.534 12.675,13.367 13,23.5 -0.042,10.512 -4.709,18.012 -14,22.5 -2.617,-1.286 -4.95,-2.953 -7,-5 -7.881,-11.678 -7.881,-23.345 0,-35 2.27,-2.475 4.937,-4.475 8,-6 z"
         id="path26" />
    </g>
    <g
       id="g27">
      <path
         style="opacity:0.984"
         fill="#6aabef"
         d="m 44.5,468.5 c 53,0 106,0 159,0 1.333,11.667 1.333,23.333 0,35 -53,0 -106,0 -159,0 7.956,-11.695 7.956,-23.361 0,-35 z"
         id="path27" />
    </g>
    <g
       id="g28">
      <path
         style="opacity:0.984"
         fill="#6aabef"
         d="m 307.5,468.5 c 53,0 106,0 159,0 -7.881,11.655 -7.881,23.322 0,35 -53,0 -106,0 -159,0 -1.333,-11.667 -1.333,-23.333 0,-35 z"
         id="path28" />
    </g>
  </g>
</svg>
